<svg width="22" height="21" viewBox="0 0 22 21" fill="none" xmlns="http://www.w3.org/2000/svg">
<path d="M10.9906 0.2417C5.19453 0.23935 0.5 4.93154 0.5 10.7229C0.5 15.3026 3.43672 19.1956 7.52656 20.6253C8.07734 20.7636 7.99297 20.3721 7.99297 20.105V18.2886C4.8125 18.6612 4.68359 16.5565 4.47031 16.205C4.03906 15.469 3.01953 15.2815 3.32422 14.93C4.04844 14.5573 4.78672 15.0237 5.64219 16.287C6.26094 17.2034 7.46797 17.0487 8.07969 16.8964C8.21328 16.3456 8.49922 15.8534 8.89297 15.4714C5.59766 14.8807 4.22422 12.8698 4.22422 10.4792C4.22422 9.31902 4.60625 8.25263 5.35625 7.39248C4.87812 5.97451 5.40078 4.76045 5.47109 4.57998C6.83281 4.4581 8.24844 5.55498 8.35859 5.6417C9.132 5.4331 10.0156 5.32295 11.0047 5.32295C11.9984 5.32295 12.8844 5.43779 13.6648 5.64873C13.9297 5.44717 15.2422 4.50498 16.5078 4.61982C16.5758 4.80029 17.0867 5.98623 16.6367 7.38545C17.3961 8.24795 17.7828 9.32372 17.7828 10.4862C17.7828 12.8815 16.4 14.8948 13.0953 15.4761C13.3784 15.7544 13.6031 16.0864 13.7564 16.4526C13.9098 16.8188 13.9886 17.2119 13.9883 17.6089V20.2456C14.007 20.4565 13.9883 20.6651 14.3398 20.6651C18.4906 19.2659 21.4789 15.3448 21.4789 10.7253C21.4789 4.93154 16.782 0.2417 10.9906 0.2417Z" fill="#CEFF7E"/>
</svg>
