<svg width="23" height="20" viewBox="0 0 23 20" fill="none" xmlns="http://www.w3.org/2000/svg">
<path d="M21.2059 2.375H1.79412C1.66499 2.375 1.53123 2.32091 1.42519 2.20825C1.3177 2.09404 1.25 1.92994 1.25 1.75C1.25 1.57006 1.3177 1.40596 1.42519 1.29175C1.53123 1.17909 1.66499 1.125 1.79412 1.125H21.2059C21.335 1.125 21.4688 1.17909 21.5748 1.29175C21.6823 1.40596 21.75 1.57006 21.75 1.75C21.75 1.92994 21.6823 2.09404 21.5748 2.20825C21.4688 2.32091 21.335 2.375 21.2059 2.375ZM21.2059 10.625H1.79412C1.66499 10.625 1.53123 10.5709 1.42519 10.4582C1.3177 10.344 1.25 10.1799 1.25 10C1.25 9.82006 1.3177 9.65596 1.42519 9.54175C1.53123 9.42909 1.66499 9.375 1.79412 9.375H21.2059C21.335 9.375 21.4688 9.42909 21.5748 9.54175C21.6823 9.65596 21.75 9.82006 21.75 10C21.75 10.1799 21.6823 10.344 21.5748 10.4582C21.4688 10.5709 21.335 10.625 21.2059 10.625ZM21.2059 18.875H1.79412C1.66498 18.875 1.53123 18.8209 1.42519 18.7083C1.3177 18.594 1.25 18.4299 1.25 18.25C1.25 18.0701 1.3177 17.906 1.42519 17.7917C1.53123 17.6791 1.66498 17.625 1.79412 17.625H21.2059C21.335 17.625 21.4688 17.6791 21.5748 17.7917C21.6823 17.906 21.75 18.0701 21.75 18.25C21.75 18.4299 21.6823 18.594 21.5748 18.7083C21.4688 18.8209 21.335 18.875 21.2059 18.875Z" fill="#CEFF7E" stroke="#CEFF7E" stroke-width="1.5"/>
</svg>
