<svg width="14" height="14" viewBox="0 0 14 14" fill="none" xmlns="http://www.w3.org/2000/svg">
<path d="M6.5205 1.75615C6.6741 1.44486 6.75096 1.28921 6.85523 1.23948C6.94596 1.19621 7.05143 1.19621 7.14216 1.23948C7.2465 1.28921 7.3233 1.44486 7.47696 1.75615L8.93476 4.70946C8.9801 4.80136 9.00276 4.84732 9.0359 4.883C9.0653 4.91458 9.1005 4.94018 9.13956 4.95836C9.18376 4.97889 9.23443 4.9863 9.33583 5.00112L12.5967 5.47775C12.9401 5.52794 13.1118 5.55303 13.1912 5.6369C13.2604 5.70987 13.2928 5.81014 13.2797 5.90979C13.2646 6.02433 13.1403 6.14541 12.8917 6.38754L10.533 8.68488C10.4595 8.75648 10.4227 8.79234 10.399 8.83494C10.378 8.87261 10.3645 8.91408 10.3593 8.95694C10.3534 9.00534 10.3621 9.05594 10.3794 9.15707L10.936 12.402C10.9947 12.7443 11.024 12.9154 10.9689 13.0169C10.9209 13.1053 10.8356 13.1673 10.7368 13.1856C10.6231 13.2067 10.4694 13.1258 10.1621 12.9642L7.24696 11.4311C7.1561 11.3834 7.1107 11.3595 7.06283 11.3501C7.0205 11.3418 6.9769 11.3418 6.93456 11.3501C6.8867 11.3595 6.8413 11.3834 6.7505 11.4311L3.83531 12.9642C3.52798 13.1258 3.3743 13.2067 3.26068 13.1856C3.16182 13.1673 3.07651 13.1053 3.02852 13.0169C2.97336 12.9154 3.00272 12.7443 3.06141 12.402L3.61796 9.15707C3.6353 9.05594 3.64398 9.00534 3.63811 8.95694C3.63291 8.91408 3.61944 8.87261 3.59844 8.83494C3.57471 8.79234 3.53795 8.75648 3.46442 8.68488L1.10574 6.38754C0.857136 6.14541 0.732836 6.02433 0.717716 5.90979C0.704556 5.81014 0.737062 5.70987 0.806196 5.6369C0.885656 5.55303 1.05734 5.52794 1.40072 5.47775L4.66157 5.00112C4.76298 4.9863 4.81368 4.97889 4.85784 4.95836C4.89694 4.94018 4.93214 4.91458 4.96149 4.883C4.99464 4.84732 5.01732 4.80136 5.06268 4.70946L6.5205 1.75615Z" stroke="#9CA3AF" stroke-width="1.33333" stroke-linecap="round" stroke-linejoin="round"/>
</svg>
